<?xml version="1.0" standalone="no"?><!DOCTYPE svg PUBLIC "-//W3C//DTD SVG 1.1//EN" "http://www.w3.org/Graphics/SVG/1.1/DTD/svg11.dtd"><svg t="1724839806441" class="icon" viewBox="0 0 1024 1024" version="1.1" xmlns="http://www.w3.org/2000/svg" p-id="8836" xmlns:xlink="http://www.w3.org/1999/xlink" width="200" height="200"><path d="M0 194.56m61.44 0l634.88 0q61.44 0 61.44 61.44l0 440.32q0 61.44-61.44 61.44l-634.88 0q-61.44 0-61.44-61.44l0-440.32q0-61.44 61.44-61.44Z" fill="#FF7A45" p-id="8837"></path><path d="M0 471.04h757.76v225.28a61.44 61.44 0 0 1-61.44 61.44H61.44a61.44 61.44 0 0 1-61.44-61.44V471.04z" fill="#CF5A1A" p-id="8838"></path><path d="M1024 245.76v409.6l-266.24-75.08992V331.08992z" fill="#FF7A45" p-id="8839"></path><path d="M1024 245.76v409.6l-266.24-75.08992V331.08992z" fill="#FFBB96" p-id="8840"></path><path d="M1024 471.04v184.32l-266.24-75.08992V471.04h266.24z" fill="#FF7A45" p-id="8841"></path><path d="M319.93856 747.52h117.88288l87.296 187.07456a30.72 30.72 0 1 0 55.68512-25.98912l-95.58016-204.8A30.72 30.72 0 0 0 457.39008 686.08H300.36992a30.72 30.72 0 0 0-27.83232 17.72544l-95.58016 204.8a30.72 30.72 0 1 0 55.68512 25.98912L319.93856 747.52z" fill="#CF5A1A" p-id="8842"></path></svg>