<?xml version="1.0" standalone="no"?><!DOCTYPE svg PUBLIC "-//W3C//DTD SVG 1.1//EN" "http://www.w3.org/Graphics/SVG/1.1/DTD/svg11.dtd"><svg t="1724839820012" class="icon" viewBox="0 0 1024 1024" version="1.1" xmlns="http://www.w3.org/2000/svg" p-id="9812" xmlns:xlink="http://www.w3.org/1999/xlink" width="200" height="200"><path d="M512 1015.741935C233.785806 1015.741935 8.258065 790.214194 8.258065 512S233.785806 8.258065 512 8.258065 1015.741935 233.785806 1015.741935 512 790.214194 1015.741935 512 1015.741935z m0-49.548387c250.846968 0 454.193548-203.346581 454.193548-454.193548S762.846968 57.806452 512 57.806452 57.806452 261.153032 57.806452 512 261.153032 966.193548 512 966.193548z" fill="#0069F6" p-id="9813"></path><path d="M512 476.96929l105.108645-105.108645a24.774194 24.774194 0 0 1 35.03071 35.03071L547.03071 512l105.108645 105.108645a24.774194 24.774194 0 0 1-35.03071 35.03071L512 547.03071l-105.108645 105.108645a24.774194 24.774194 0 0 1-35.03071-35.03071L476.96929 512l-105.108645-105.108645a24.774194 24.774194 0 0 1 35.03071-35.03071L512 476.96929z" fill="#5ED7BC" p-id="9814"></path></svg>